<svg xmlns="http://www.w3.org/2000/svg" viewBox="0 0 1490 360" width="100%" font-family="'PingFang SC','Microsoft YaHei',-apple-system,'Segoe UI',sans-serif"><rect width="100%" height="100%" fill="#fafafa"/><defs><marker id="arr-665ca2" viewBox="0 0 10 10" refX="8" refY="5" markerWidth="7" markerHeight="7" orient="auto-start-reverse"><path d="M2 1L8 5L2 9" fill="none" stroke="#665ca2" stroke-width="1.5" stroke-linecap="round" stroke-linejoin="round"/></marker><marker id="arr-9d92d6" viewBox="0 0 10 10" refX="8" refY="5" markerWidth="7" markerHeight="7" orient="auto-start-reverse"><path d="M2 1L8 5L2 9" fill="none" stroke="#9d92d6" stroke-width="1.5" stroke-linecap="round" stroke-linejoin="round"/></marker><marker id="arr-5e8fd0" viewBox="0 0 10 10" refX="8" refY="5" markerWidth="7" markerHeight="7" orient="auto-start-reverse"><path d="M2 1L8 5L2 9" fill="none" stroke="#5e8fd0" stroke-width="1.5" stroke-linecap="round" stroke-linejoin="round"/></marker><marker id="arr-8a7fb5" viewBox="0 0 10 10" refX="8" refY="5" markerWidth="7" markerHeight="7" orient="auto-start-reverse"><path d="M2 1L8 5L2 9" fill="none" stroke="#8a7fb5" stroke-width="1.5" stroke-linecap="round" stroke-linejoin="round"/></marker><marker id="arr-3fa66a" viewBox="0 0 10 10" refX="8" refY="5" markerWidth="7" markerHeight="7" orient="auto-start-reverse"><path d="M2 1L8 5L2 9" fill="none" stroke="#3fa66a" stroke-width="1.5" stroke-linecap="round" stroke-linejoin="round"/></marker><marker id="arr-e0a23b" viewBox="0 0 10 10" refX="8" refY="5" markerWidth="7" markerHeight="7" orient="auto-start-reverse"><path d="M2 1L8 5L2 9" fill="none" stroke="#e0a23b" stroke-width="1.5" stroke-linecap="round" stroke-linejoin="round"/></marker><marker id="arr-9e9e9e" viewBox="0 0 10 10" refX="8" refY="5" markerWidth="7" markerHeight="7" orient="auto-start-reverse"><path d="M2 1L8 5L2 9" fill="none" stroke="#9e9e9e" stroke-width="1.5" stroke-linecap="round" stroke-linejoin="round"/></marker></defs><line x1="190" y1="127" x2="230" y2="127" stroke="#9d92d6" stroke-width="1.5" marker-end="url(#arr-9d92d6)"/><line x1="390" y1="127" x2="430" y2="127" stroke="#9d92d6" stroke-width="1.5" marker-end="url(#arr-9d92d6)"/><line x1="590" y1="127" x2="630" y2="135" stroke="#9d92d6" stroke-width="1.5" marker-end="url(#arr-9d92d6)"/><line x1="810" y1="135" x2="850" y2="47" stroke="#3fa66a" stroke-width="2" marker-end="url(#arr-3fa66a)"/><rect x="813" y="71" width="34" height="18" rx="4" fill="#fff" stroke="#3fa66a" stroke-opacity="0.4" stroke-width="0.75"/><text x="830" y="84" text-anchor="middle" font-size="11" fill="#333" font-family="'PingFang SC','Microsoft YaHei',-apple-system,'Segoe UI',sans-serif">充足</text><line x1="810" y1="135" x2="850" y2="157" stroke="#e0a23b" stroke-width="2" marker-end="url(#arr-e0a23b)"/><rect x="813" y="126" width="34" height="18" rx="4" fill="#fff" stroke="#e0a23b" stroke-opacity="0.4" stroke-width="0.75"/><text x="830" y="139" text-anchor="middle" font-size="11" fill="#333" font-family="'PingFang SC','Microsoft YaHei',-apple-system,'Segoe UI',sans-serif">接近</text><line x1="810" y1="135" x2="850" y2="267" stroke="#e0a23b" stroke-width="2" stroke-dasharray="5 4" marker-end="url(#arr-e0a23b)"/><rect x="813" y="181" width="34" height="18" rx="4" fill="#fff" stroke="#e0a23b" stroke-opacity="0.4" stroke-width="0.75"/><text x="830" y="194" text-anchor="middle" font-size="11" fill="#333" font-family="'PingFang SC','Microsoft YaHei',-apple-system,'Segoe UI',sans-serif">超出</text><line x1="1010" y1="47" x2="1070" y2="157" stroke="#3fa66a" stroke-width="1.5" stroke-dasharray="4 4" marker-end="url(#arr-3fa66a)"/><line x1="1010" y1="157" x2="1070" y2="157" stroke="#e0a23b" stroke-width="2" marker-end="url(#arr-e0a23b)"/><line x1="1010" y1="267" x2="1070" y2="157" stroke="#e0a23b" stroke-width="2" marker-end="url(#arr-e0a23b)"/><line x1="1230" y1="157" x2="1290" y2="277" stroke="#5e8fd0" stroke-width="1.5" stroke-dasharray="4 4" marker-end="url(#arr-5e8fd0)"/><line x1="1230" y1="157" x2="1290" y2="157" stroke="#665ca2" stroke-width="2" marker-end="url(#arr-665ca2)"/><g><rect x="30" y="100" width="160" height="54" rx="10" fill="#ede9f7" stroke="#665ca2" stroke-width="1.5"/><text x="110" y="131" text-anchor="middle" font-size="13" font-weight="600" fill="#1a1a1a" font-family="'PingFang SC','Microsoft YaHei',-apple-system,'Segoe UI',sans-serif">用户消息</text></g><g><rect x="230" y="100" width="160" height="54" rx="10" fill="#e9f1fb" stroke="#5e8fd0" stroke-width="1.5"/><text x="310" y="122" text-anchor="middle" font-size="13" font-weight="600" fill="#1a1a1a" font-family="'PingFang SC','Microsoft YaHei',-apple-system,'Segoe UI',sans-serif">消息历史</text><text x="310" y="140" text-anchor="middle" font-size="11" fill="#555" font-family="'PingFang SC','Microsoft YaHei',-apple-system,'Segoe UI',sans-serif">MySQL</text></g><g><rect x="430" y="100" width="160" height="54" rx="10" fill="#f4f1fc" stroke="#9d92d6" stroke-width="1.5"/><text x="510" y="122" text-anchor="middle" font-size="13" font-weight="600" fill="#1a1a1a" font-family="'PingFang SC','Microsoft YaHei',-apple-system,'Segoe UI',sans-serif">Token 计数</text><text x="510" y="140" text-anchor="middle" font-size="11" fill="#555" font-family="'PingFang SC','Microsoft YaHei',-apple-system,'Segoe UI',sans-serif">当前用量</text></g><g><polygon points="720,90 810,135 720,180 630,135" fill="#fff3e0" stroke="#e0a23b" stroke-width="1.5"/><text x="720" y="131" text-anchor="middle" font-size="13" font-weight="600" fill="#1a1a1a" font-family="'PingFang SC','Microsoft YaHei',-apple-system,'Segoe UI',sans-serif">Token 预算?</text><text x="720" y="148" text-anchor="middle" font-size="10" fill="#7a5b13" font-family="'PingFang SC','Microsoft YaHei',-apple-system,'Segoe UI',sans-serif">HISTORY_MAX=16000</text></g><g><rect x="850" y="20" width="160" height="54" rx="10" fill="#e8f5ee" stroke="#3fa66a" stroke-width="1.5"/><text x="930" y="42" text-anchor="middle" font-size="13" font-weight="600" fill="#1a1a1a" font-family="'PingFang SC','Microsoft YaHei',-apple-system,'Segoe UI',sans-serif">全部保留</text><text x="930" y="60" text-anchor="middle" font-size="11" fill="#555" font-family="'PingFang SC','Microsoft YaHei',-apple-system,'Segoe UI',sans-serif">预算充足</text></g><g><rect x="850" y="130" width="160" height="54" rx="10" fill="#fff3e0" stroke="#e0a23b" stroke-width="1.5"/><text x="930" y="152" text-anchor="middle" font-size="13" font-weight="600" fill="#1a1a1a" font-family="'PingFang SC','Microsoft YaHei',-apple-system,'Segoe UI',sans-serif">摘要旧消息</text><text x="930" y="170" text-anchor="middle" font-size="11" fill="#555" font-family="'PingFang SC','Microsoft YaHei',-apple-system,'Segoe UI',sans-serif">接近上限</text></g><g><rect x="850" y="240" width="160" height="54" rx="10" fill="#fff3e0" stroke="#e0a23b" stroke-width="1.5"/><text x="930" y="262" text-anchor="middle" font-size="13" font-weight="600" fill="#1a1a1a" font-family="'PingFang SC','Microsoft YaHei',-apple-system,'Segoe UI',sans-serif">压缩路径</text><text x="930" y="280" text-anchor="middle" font-size="11" fill="#555" font-family="'PingFang SC','Microsoft YaHei',-apple-system,'Segoe UI',sans-serif">超出上限</text></g><g><rect x="1070" y="130" width="160" height="54" rx="10" fill="#f4f1fc" stroke="#9d92d6" stroke-width="1.5"/><text x="1150" y="161" text-anchor="middle" font-size="13" font-weight="600" fill="#1a1a1a" font-family="'PingFang SC','Microsoft YaHei',-apple-system,'Segoe UI',sans-serif">compressConversation</text></g><g><rect x="1290" y="250" width="160" height="54" rx="10" fill="#e9f1fb" stroke="#5e8fd0" stroke-width="1.5"/><text x="1370" y="272" text-anchor="middle" font-size="13" font-weight="600" fill="#1a1a1a" font-family="'PingFang SC','Microsoft YaHei',-apple-system,'Segoe UI',sans-serif">摘要 (DB)</text><text x="1370" y="290" text-anchor="middle" font-size="11" fill="#555" font-family="'PingFang SC','Microsoft YaHei',-apple-system,'Segoe UI',sans-serif">summary/recap</text></g><g><rect x="1290" y="130" width="160" height="54" rx="10" fill="#f0ecf8" stroke="#8a7fb5" stroke-width="1.5"/><text x="1370" y="152" text-anchor="middle" font-size="13" font-weight="600" fill="#1a1a1a" font-family="'PingFang SC','Microsoft YaHei',-apple-system,'Segoe UI',sans-serif">LLM 调用</text><text x="1370" y="170" text-anchor="middle" font-size="11" fill="#555" font-family="'PingFang SC','Microsoft YaHei',-apple-system,'Segoe UI',sans-serif">压缩后上下文</text></g><g font-family="'PingFang SC','Microsoft YaHei',-apple-system,'Segoe UI',sans-serif" font-size="12" fill="#555"><rect x="40" y="325" width="14" height="14" rx="3" fill="#ede9f7" stroke="#665ca2" stroke-width="1.2"/><text x="60" y="336" >主链路</text><rect x="116" y="325" width="14" height="14" rx="3" fill="#f4f1fc" stroke="#9d92d6" stroke-width="1.2"/><text x="136" y="336" >处理</text><rect x="180" y="325" width="14" height="14" rx="3" fill="#e9f1fb" stroke="#5e8fd0" stroke-width="1.2"/><text x="200" y="336" >数据</text><rect x="244" y="325" width="14" height="14" rx="3" fill="#f0ecf8" stroke="#8a7fb5" stroke-width="1.2"/><text x="264" y="336" >云 / LLM</text><rect x="368" y="325" width="14" height="14" rx="3" fill="#e8f5ee" stroke="#3fa66a" stroke-width="1.2"/><text x="388" y="336" >充足(绿)</text><rect x="468" y="325" width="14" height="14" rx="3" fill="#fff3e0" stroke="#e0a23b" stroke-width="1.2"/><text x="488" y="336" >接近/超出(琥珀)</text></g></svg>