<svg xmlns="http://www.w3.org/2000/svg" viewBox="0 0 1420 520" width="100%" font-family="'PingFang SC','Microsoft YaHei',-apple-system,'Segoe UI',sans-serif"><rect width="100%" height="100%" fill="#fafafa"/><defs><marker id="arr-665ca2" viewBox="0 0 10 10" refX="8" refY="5" markerWidth="7" markerHeight="7" orient="auto-start-reverse"><path d="M2 1L8 5L2 9" fill="none" stroke="#665ca2" stroke-width="1.5" stroke-linecap="round" stroke-linejoin="round"/></marker><marker id="arr-9d92d6" viewBox="0 0 10 10" refX="8" refY="5" markerWidth="7" markerHeight="7" orient="auto-start-reverse"><path d="M2 1L8 5L2 9" fill="none" stroke="#9d92d6" stroke-width="1.5" stroke-linecap="round" stroke-linejoin="round"/></marker><marker id="arr-5e8fd0" viewBox="0 0 10 10" refX="8" refY="5" markerWidth="7" markerHeight="7" orient="auto-start-reverse"><path d="M2 1L8 5L2 9" fill="none" stroke="#5e8fd0" stroke-width="1.5" stroke-linecap="round" stroke-linejoin="round"/></marker><marker id="arr-8a7fb5" viewBox="0 0 10 10" refX="8" refY="5" markerWidth="7" markerHeight="7" orient="auto-start-reverse"><path d="M2 1L8 5L2 9" fill="none" stroke="#8a7fb5" stroke-width="1.5" stroke-linecap="round" stroke-linejoin="round"/></marker><marker id="arr-3fa66a" viewBox="0 0 10 10" refX="8" refY="5" markerWidth="7" markerHeight="7" orient="auto-start-reverse"><path d="M2 1L8 5L2 9" fill="none" stroke="#3fa66a" stroke-width="1.5" stroke-linecap="round" stroke-linejoin="round"/></marker><marker id="arr-e0a23b" viewBox="0 0 10 10" refX="8" refY="5" markerWidth="7" markerHeight="7" orient="auto-start-reverse"><path d="M2 1L8 5L2 9" fill="none" stroke="#e0a23b" stroke-width="1.5" stroke-linecap="round" stroke-linejoin="round"/></marker><marker id="arr-9e9e9e" viewBox="0 0 10 10" refX="8" refY="5" markerWidth="7" markerHeight="7" orient="auto-start-reverse"><path d="M2 1L8 5L2 9" fill="none" stroke="#9e9e9e" stroke-width="1.5" stroke-linecap="round" stroke-linejoin="round"/></marker></defs><line x1="120" y1="84" x2="120" y2="160" stroke="#665ca2" stroke-width="2" marker-end="url(#arr-665ca2)"/><line x1="120" y1="214" x2="120" y2="300" stroke="#665ca2" stroke-width="2" marker-end="url(#arr-665ca2)"/><line x1="200" y1="327" x2="300" y2="247" stroke="#665ca2" stroke-width="1.5" marker-end="url(#arr-665ca2)"/><line x1="200" y1="327" x2="300" y2="357" stroke="#665ca2" stroke-width="1.5" marker-end="url(#arr-665ca2)"/><line x1="200" y1="327" x2="300" y2="467" stroke="#665ca2" stroke-width="1.5" marker-end="url(#arr-665ca2)"/><line x1="460" y1="247" x2="540" y2="357" stroke="#5e8fd0" stroke-width="1.5" marker-end="url(#arr-5e8fd0)"/><line x1="460" y1="357" x2="540" y2="357" stroke="#5e8fd0" stroke-width="1.5" marker-end="url(#arr-5e8fd0)"/><line x1="460" y1="467" x2="540" y2="357" stroke="#5e8fd0" stroke-width="1.5" marker-end="url(#arr-5e8fd0)"/><line x1="700" y1="357" x2="760" y2="365" stroke="#665ca2" stroke-width="2" marker-end="url(#arr-665ca2)"/><line x1="940" y1="365" x2="1000" y2="237" stroke="#3fa66a" stroke-width="2" marker-end="url(#arr-3fa66a)"/><rect x="958.5" y="281" width="23" height="18" rx="4" fill="#fff" stroke="#3fa66a" stroke-opacity="0.4" stroke-width="0.75"/><text x="970" y="294" text-anchor="middle" font-size="11" fill="#333" font-family="'PingFang SC','Microsoft YaHei',-apple-system,'Segoe UI',sans-serif">是</text><line x1="940" y1="365" x2="1000" y2="447" stroke="#e0a23b" stroke-width="2" marker-end="url(#arr-e0a23b)"/><rect x="958.5" y="386" width="23" height="18" rx="4" fill="#fff" stroke="#e0a23b" stroke-opacity="0.4" stroke-width="0.75"/><text x="970" y="399" text-anchor="middle" font-size="11" fill="#333" font-family="'PingFang SC','Microsoft YaHei',-apple-system,'Segoe UI',sans-serif">否</text><line x1="1160" y1="237" x2="1220" y2="357" stroke="#3fa66a" stroke-width="2" marker-end="url(#arr-3fa66a)"/><line x1="1160" y1="447" x2="1220" y2="357" stroke="#8a7fb5" stroke-width="2" marker-end="url(#arr-8a7fb5)"/><g><rect x="40" y="30" width="160" height="54" rx="10" fill="#ede9f7" stroke="#665ca2" stroke-width="1.5"/><text x="120" y="52" text-anchor="middle" font-size="13" font-weight="600" fill="#1a1a1a" font-family="'PingFang SC','Microsoft YaHei',-apple-system,'Segoe UI',sans-serif">用户查询</text><text x="120" y="70" text-anchor="middle" font-size="11" fill="#555" font-family="'PingFang SC','Microsoft YaHei',-apple-system,'Segoe UI',sans-serif">"看夜景最好的地方"</text></g><g><rect x="40" y="160" width="160" height="54" rx="10" fill="#f4f1fc" stroke="#9d92d6" stroke-width="1.5"/><text x="120" y="182" text-anchor="middle" font-size="13" font-weight="600" fill="#1a1a1a" font-family="'PingFang SC','Microsoft YaHei',-apple-system,'Segoe UI',sans-serif">QueryRewriter</text><text x="120" y="200" text-anchor="middle" font-size="11" fill="#555" font-family="'PingFang SC','Microsoft YaHei',-apple-system,'Segoe UI',sans-serif">本地关键词提取 ~1ms</text></g><g><rect x="40" y="300" width="160" height="54" rx="10" fill="#ede9f7" stroke="#665ca2" stroke-width="1.5"/><text x="120" y="322" text-anchor="middle" font-size="13" font-weight="600" fill="#1a1a1a" font-family="'PingFang SC','Microsoft YaHei',-apple-system,'Segoe UI',sans-serif">改写后</text><text x="120" y="340" text-anchor="middle" font-size="11" fill="#555" font-family="'PingFang SC','Microsoft YaHei',-apple-system,'Segoe UI',sans-serif">"广州 夜景 珠江"</text></g><g><rect x="300" y="220" width="160" height="54" rx="10" fill="#f4f1fc" stroke="#9d92d6" stroke-width="1.5"/><text x="380" y="242" text-anchor="middle" font-size="13" font-weight="600" fill="#1a1a1a" font-family="'PingFang SC','Microsoft YaHei',-apple-system,'Segoe UI',sans-serif">Chroma 向量检索</text><text x="380" y="260" text-anchor="middle" font-size="11" fill="#555" font-family="'PingFang SC','Microsoft YaHei',-apple-system,'Segoe UI',sans-serif">top-20 语义相似</text></g><g><rect x="300" y="330" width="160" height="54" rx="10" fill="#f4f1fc" stroke="#9d92d6" stroke-width="1.5"/><text x="380" y="352" text-anchor="middle" font-size="13" font-weight="600" fill="#1a1a1a" font-family="'PingFang SC','Microsoft YaHei',-apple-system,'Segoe UI',sans-serif">MySQL LIKE 关键词</text><text x="380" y="370" text-anchor="middle" font-size="11" fill="#555" font-family="'PingFang SC','Microsoft YaHei',-apple-system,'Segoe UI',sans-serif">top-10 精确匹配</text></g><g><rect x="300" y="440" width="160" height="54" rx="10" fill="#f4f1fc" stroke="#9d92d6" stroke-width="1.5"/><text x="380" y="462" text-anchor="middle" font-size="13" font-weight="600" fill="#1a1a1a" font-family="'PingFang SC','Microsoft YaHei',-apple-system,'Segoe UI',sans-serif">MySQL rating</text><text x="380" y="480" text-anchor="middle" font-size="11" fill="#555" font-family="'PingFang SC','Microsoft YaHei',-apple-system,'Segoe UI',sans-serif">top-10 热度兜底</text></g><g><rect x="540" y="330" width="160" height="54" rx="10" fill="#ede9f7" stroke="#665ca2" stroke-width="1.5"/><text x="620" y="352" text-anchor="middle" font-size="13" font-weight="600" fill="#1a1a1a" font-family="'PingFang SC','Microsoft YaHei',-apple-system,'Segoe UI',sans-serif">RRF 融合</text><text x="620" y="370" text-anchor="middle" font-size="11" fill="#555" font-family="'PingFang SC','Microsoft YaHei',-apple-system,'Segoe UI',sans-serif">3 路去重 → top-20</text></g><g><polygon points="850,320 940,365 850,410 760,365" fill="#fff3e0" stroke="#e0a23b" stroke-width="1.5"/><text x="850" y="361" text-anchor="middle" font-size="13" font-weight="600" fill="#1a1a1a" font-family="'PingFang SC','Microsoft YaHei',-apple-system,'Segoe UI',sans-serif">跳过重排?</text><text x="850" y="378" text-anchor="middle" font-size="10" fill="#7a5b13" font-family="'PingFang SC','Microsoft YaHei',-apple-system,'Segoe UI',sans-serif">top-1 rrfScore&gt;0.04</text></g><g><rect x="1000" y="210" width="160" height="54" rx="10" fill="#e8f5ee" stroke="#3fa66a" stroke-width="1.5"/><text x="1080" y="232" text-anchor="middle" font-size="13" font-weight="600" fill="#1a1a1a" font-family="'PingFang SC','Microsoft YaHei',-apple-system,'Segoe UI',sans-serif">直接 top-5</text><text x="1080" y="250" text-anchor="middle" font-size="11" fill="#555" font-family="'PingFang SC','Microsoft YaHei',-apple-system,'Segoe UI',sans-serif">置信度足够</text></g><g><rect x="1000" y="420" width="160" height="54" rx="10" fill="#f0ecf8" stroke="#8a7fb5" stroke-width="1.5"/><text x="1080" y="442" text-anchor="middle" font-size="13" font-weight="600" fill="#1a1a1a" font-family="'PingFang SC','Microsoft YaHei',-apple-system,'Segoe UI',sans-serif">Cross-Encoder</text><text x="1080" y="460" text-anchor="middle" font-size="11" fill="#555" font-family="'PingFang SC','Microsoft YaHei',-apple-system,'Segoe UI',sans-serif">bge-reranker-base</text></g><g><rect x="1220" y="330" width="160" height="54" rx="10" fill="#e8f5ee" stroke="#3fa66a" stroke-width="1.5"/><text x="1300" y="352" text-anchor="middle" font-size="13" font-weight="600" fill="#1a1a1a" font-family="'PingFang SC','Microsoft YaHei',-apple-system,'Segoe UI',sans-serif">最终输出</text><text x="1300" y="370" text-anchor="middle" font-size="11" fill="#555" font-family="'PingFang SC','Microsoft YaHei',-apple-system,'Segoe UI',sans-serif">5 条 POI</text></g><g font-family="'PingFang SC','Microsoft YaHei',-apple-system,'Segoe UI',sans-serif" font-size="12" fill="#555"><rect x="40" y="485" width="14" height="14" rx="3" fill="#ede9f7" stroke="#665ca2" stroke-width="1.2"/><text x="60" y="496" >主链路</text><rect x="116" y="485" width="14" height="14" rx="3" fill="#f4f1fc" stroke="#9d92d6" stroke-width="1.2"/><text x="136" y="496" >子服务</text><rect x="192" y="485" width="14" height="14" rx="3" fill="#e9f1fb" stroke="#5e8fd0" stroke-width="1.2"/><text x="212" y="496" >数据召回</text><rect x="280" y="485" width="14" height="14" rx="3" fill="#f0ecf8" stroke="#8a7fb5" stroke-width="1.2"/><text x="300" y="496" >云 / LLM</text><rect x="404" y="485" width="14" height="14" rx="3" fill="#e8f5ee" stroke="#3fa66a" stroke-width="1.2"/><text x="424" y="496" >结果(绿)</text><rect x="504" y="485" width="14" height="14" rx="3" fill="#fff3e0" stroke="#e0a23b" stroke-width="1.2"/><text x="524" y="496" >决策(琥珀)</text></g></svg>